<svg xmlns="http://www.w3.org/2000/svg" xmlns:xlink="http://www.w3.org/1999/xlink" width="203.27mm" height="82.8mm" viewBox="0 0 576.21 234.7"><defs><style>.a{fill:url(#a);}.b{fill:url(#b);}.c{fill:url(#c);}.d{fill:#fff;}</style><linearGradient id="a" x1="35.31" y1="1276.72" x2="108.27" y2="1139.49" gradientTransform="translate(0.33 -1095.53)" gradientUnits="userSpaceOnUse"><stop offset="0" stop-color="#fff"/><stop offset="0.16" stop-color="#fff"/><stop offset="0.23" stop-color="#fff" stop-opacity="0.97"/><stop offset="0.34" stop-color="#fff" stop-opacity="0.9"/><stop offset="0.47" stop-color="#fff" stop-opacity="0.77"/><stop offset="0.61" stop-color="#fff" stop-opacity="0.6"/><stop offset="0.77" stop-color="#fff" stop-opacity="0.37"/><stop offset="0.94" stop-color="#fff" stop-opacity="0.11"/><stop offset="1" stop-color="#fff" stop-opacity="0"/></linearGradient><linearGradient id="b" x1="128.42" y1="1186.32" x2="27.17" y2="1168.47" gradientTransform="translate(0.33 -1095.53)" gradientUnits="userSpaceOnUse"><stop offset="0" stop-color="#fff"/><stop offset="0.38" stop-color="#fff"/><stop offset="1" stop-color="#fff" stop-opacity="0.2"/></linearGradient><linearGradient id="c" x1="23.28" y1="1113.39" x2="110.19" y2="1113.39" gradientTransform="translate(0.33 -1095.53)" gradientUnits="userSpaceOnUse"><stop offset="0.11" stop-color="#fff"/><stop offset="0.18" stop-color="#fff" stop-opacity="0.96"/><stop offset="0.31" stop-color="#fff" stop-opacity="0.84"/><stop offset="0.49" stop-color="#fff" stop-opacity="0.64"/><stop offset="0.7" stop-color="#fff" stop-opacity="0.38"/><stop offset="0.93" stop-color="#fff" stop-opacity="0.04"/><stop offset="0.96" stop-color="#fff" stop-opacity="0"/></linearGradient></defs><title>jersey</title><path class="a" d="M62.2,185.1A61.76,61.76,0,0,1,18.5,167,62.63,62.63,0,0,1,0,123.2a9.12,9.12,0,0,1,8.9-9.5,9.12,9.12,0,0,1,9.5,8.9v.4a44,44,0,0,0,43.8,43.7c24,0,43.5-19.9,43.5-44.3V56a9.2,9.2,0,1,1,18.4,0v66.4C124.1,157,96.3,185.1,62.2,185.1Z" transform="translate(0.01 0)"/><path class="b" d="M91.4,63.8C91.4,32.6,113.9,16,135,16a8.05,8.05,0,0,0,7.7-8.1,7.94,7.94,0,0,0-8-7.9h0a59.43,59.43,0,0,0-34.2,10.2C82.4,22.7,73,44.4,73,64.3v56.2c0,15.4-12.3,27.9-27.3,27.9-14.3,0-26.3-11.4-27.3-26v.6A44.29,44.29,0,0,0,41,161.1a41.58,41.58,0,0,0,13.3,4.8,46.3,46.3,0,0,0,37.1-45.5Z" transform="translate(0.01 0)"/><path class="c" d="M110.3,4.9a93.84,93.84,0,0,1-34.7,6.6A94.72,94.72,0,0,1,36.4,3a9.13,9.13,0,0,0-7.5,16.6A112.46,112.46,0,0,0,75.6,29.7h0c2.4,0,4.8-.1,7.1-.2a60.06,60.06,0,0,1,6.7-9.2A56.62,56.62,0,0,1,110.3,4.9Z" transform="translate(0.01 0)"/><path class="d" d="M244.6,116.7c0-19.1,14.2-34.5,34.1-34.5,17.9,0,33.1,12.3,33.1,37.3a3.07,3.07,0,0,1-3,3h-46c1.2,8.1,7.8,14.8,19,14.8a29,29,0,0,0,15.2-4.6,3,3,0,0,1,4.2.9c.6.8,2.9,4.1,4.4,6.5a3.12,3.12,0,0,1-.7,4.1c-6.6,4.7-15.8,7.3-24.9,7.3C259.8,151.4,244.6,137.9,244.6,116.7Zm34.2-20.3c-10.8,0-15.4,7.5-16.1,14.1h32.5C294.6,104.2,290.2,96.4,278.8,96.4Zm156.4,20.3c0-19.1,14.2-34.5,34.1-34.5,17.9,0,33,12.3,33,37.3a3.07,3.07,0,0,1-3,3h-46c1.2,8.1,7.8,14.8,19,14.8a29,29,0,0,0,15.2-4.6,2.9,2.9,0,0,1,4.1.9c.6.8,2.9,4.1,4.4,6.5a3.12,3.12,0,0,1-.7,4.1c-6.6,4.7-15.8,7.3-24.9,7.3C450.3,151.4,435.2,137.9,435.2,116.7Zm34.1-20.3c-10.8,0-15.4,7.5-16.1,14.1h32.5C485.2,104.2,480.8,96.4,469.3,96.4ZM323.2,146.8V86.9a3.07,3.07,0,0,1,3-3h11.3a3,3,0,0,1,3,3v5.8A30,30,0,0,1,358,82.5a3.07,3.07,0,0,1,3.5,3V95.8a3,3,0,0,1-3,3c-6.9-.6-15.2,4.2-18,11v37a3,3,0,0,1-3,3H326.2A3.07,3.07,0,0,1,323.2,146.8Zm46-8c1.5-2.5,3.8-6.3,4.4-7.3a3.09,3.09,0,0,1,4.3-.8c5.3,3.8,13.3,7.1,20.2,7.1,7.5,0,11.1-2.9,11.1-7,0-10.8-39.1-1.9-39.1-27.9,0-11.1,9.6-20.8,27-20.8a42.8,42.8,0,0,1,24.4,7.4,3.08,3.08,0,0,1,.8,3.9c-.6,1-2.4,4.3-3.8,6.7a3.18,3.18,0,0,1-4.3,1.1,29.78,29.78,0,0,0-17.1-5.5c-6.3,0-10.4,2.7-10.4,6.4,0,9.7,39.2,1.5,39.2,28.1,0,12.2-10.4,21-28.7,21-10.4,0-20.5-3.1-27.5-8.5A3,3,0,0,1,369.2,138.8ZM558.8,86.9v34.9c0,5.8-5,11.7-14,11.7-8.7,0-13.4-6.7-13.4-11.7V86.9a3,3,0,0,0-3-3H517.1a3,3,0,0,0-3,3v36.6c0,15.9,14.4,26.6,30.5,26.3,9.2-.2,12.2-3.1,14.2-4.4,0,10-5,15.1-10.7,16.5a27.77,27.77,0,0,1-24.5-4.8,3.2,3.2,0,0,0-4.3.7c-1.5,2.4-3,4.7-4.4,7.1a3,3,0,0,0,.7,4.2c13.4,9.9,28.3,8.2,35.7,6.8,14.8-2.8,24.9-16.1,24.9-28.7V86.8a3,3,0,0,0-3-3H561.9a3.11,3.11,0,0,0-3.1,3.1M234.5,66a3,3,0,0,0-3-3h-12a3,3,0,0,0-3,3v53.6a14.81,14.81,0,0,1-15.2,14.9c-3.7,0-10.1-1.7-13.6-7.2a3.09,3.09,0,0,0-3.9-1.1c-1.2.5-6.7,3-10.1,4.5a3.05,3.05,0,0,0-1.3,4.1c3,5,10.8,15.6,28.7,15.6,22.1,0,33.3-14,33.3-35.2C234.5,115.3,234.5,67.6,234.5,66Z" transform="translate(0.01 0)"/><path class="d" d="M342.4,221.7c0-7.3,5-12.9,12.3-12.9s12.3,5.5,12.3,12.9-5,12.9-12.3,12.9S342.4,229.1,342.4,221.7Zm21.5,0c0-5.8-3.6-10.1-9.1-10.1s-9.1,4.3-9.1,10.1,3.5,10.1,9.1,10.1S363.9,227.5,363.9,221.7Zm8.7,12.4V218.6h-3v-2.5h3v-1.4c0-3.7,2-5.9,5.2-5.9a5,5,0,0,1,3.8,1.4l-1.2,1.8a3.37,3.37,0,0,0-2.2-.9c-1.8,0-2.8,1.3-2.8,3.5V216h3.7v2.5h-3.7V234h-2.8Zm10.6,0V218.6h-3v-2.5h3v-1.4c0-3.7,2.1-5.9,5.2-5.9a5.67,5.67,0,0,1,2.7.6l-.7,2.1a2.54,2.54,0,0,0-1.6-.4c-1.8,0-2.8,1.3-2.8,3.5V216h3.7v2.5H386V234h-2.8Zm9.3-22.4a1.9,1.9,0,1,1,1.9,1.9A1.9,1.9,0,0,1,392.5,211.7Zm.5,22.4v-18h2.8v18Zm5.8-9c0-5.3,3.6-9.4,9-9.4a7.67,7.67,0,0,1,6.6,3.1l-1.9,1.7a5.48,5.48,0,0,0-4.6-2.4c-3.8,0-6.2,2.9-6.2,6.9s2.4,7,6.2,7a5.24,5.24,0,0,0,4.6-2.4l1.9,1.7a7.67,7.67,0,0,1-6.6,3.1C402.4,234.6,398.8,230.5,398.8,225.1Zm19-13.4a1.9,1.9,0,1,1,1.9,1.9A2,2,0,0,1,417.8,211.7Zm.5,22.4v-18h2.8v18Zm18.9,0v-2a7.91,7.91,0,0,1-6,2.5c-3.1,0-6.3-2-6.3-6s3.2-5.9,6.3-5.9a7.57,7.57,0,0,1,6,2.5V222c0-2.4-1.9-3.8-4.5-3.8a7.11,7.11,0,0,0-5.5,2.5l-1.3-1.9a9.36,9.36,0,0,1,7.2-3c3.8,0,7,1.7,7,6.1v12.4h-2.9Zm0-3.8V227a6.05,6.05,0,0,0-5-2.2c-2.6,0-4.4,1.6-4.4,4s1.8,3.9,4.4,3.9A6.51,6.51,0,0,0,437.2,230.3Zm8.4,3.8V209.2h2.8v24.9Zm18.1,0V209.2h10c5,0,7.8,3.4,7.8,7.5s-2.9,7.5-7.8,7.5h-6.9v9.9Zm14.6-17.3c0-2.8-2-4.7-5-4.7h-6.5v9.5h6.5C476.3,221.5,478.3,219.6,478.3,216.8ZM496,234.1v-2a7.91,7.91,0,0,1-6,2.5c-3.1,0-6.3-2-6.3-6s3.2-5.9,6.3-5.9a7.57,7.57,0,0,1,6,2.5V222c0-2.4-1.9-3.8-4.5-3.8a7.11,7.11,0,0,0-5.5,2.5l-1.3-1.9a9.51,9.51,0,0,1,7.2-3c3.8,0,7,1.7,7,6.1v12.4H496Zm0-3.8V227a6.05,6.05,0,0,0-5-2.2c-2.6,0-4.4,1.6-4.4,4s1.8,3.9,4.4,3.9A6.51,6.51,0,0,0,496,230.3Zm6.9,3.8v-18h2.8V219a7.68,7.68,0,0,1,6-3.3v2.9a3.75,3.75,0,0,0-1.1-.1,6.51,6.51,0,0,0-4.9,2.9v12.8h-2.8Zm13.6-3.7V218.6h-3v-2.5h3v-4.9h2.8v4.9H523v2.5h-3.7v11.2c0,1.3.6,2.3,1.8,2.3a2.74,2.74,0,0,0,1.9-.7l.8,2.1a4.46,4.46,0,0,1-3.4,1.2C517.8,234.6,516.5,233.1,516.5,230.4Zm22.6,3.7V222.3c0-3.2-1.6-4.2-4-4.2a6.69,6.69,0,0,0-5.3,2.8v13.2H527v-18h2.8v2.6a8.93,8.93,0,0,1,6.4-3.1c3.8,0,5.7,1.9,5.7,5.8V234h-2.8Zm6.6-9c0-5.2,3.7-9.4,8.9-9.4,5.4,0,8.6,4.3,8.6,9.7v.7H548.6a6.3,6.3,0,0,0,6.5,6.2,7.87,7.87,0,0,0,5.6-2.3l1.3,1.8a9.8,9.8,0,0,1-7.2,2.8C549.5,234.6,545.7,230.8,545.7,225.1Zm8.8-7.1c-3.8,0-5.7,3.2-5.9,6h11.8A5.78,5.78,0,0,0,554.5,218Zm12.4,16.1v-18h2.8V219a7.68,7.68,0,0,1,6-3.3v2.9a3.75,3.75,0,0,0-1.1-.1,6.51,6.51,0,0,0-4.9,2.9v12.8h-2.8Z" transform="translate(0.01 0)"/></svg>