<?xml version="1.0" encoding="utf-8"?>
<!-- Generator: Adobe Illustrator 20.1.0, SVG Export Plug-In . SVG Version: 6.00 Build 0)  -->
<svg version="1.1" id="Layer_1" xmlns="http://www.w3.org/2000/svg" xmlns:xlink="http://www.w3.org/1999/xlink" x="0px" y="0px"
	 viewBox="0 0 576.1 234.6" style="enable-background:new 0 0 576.1 234.6;" xml:space="preserve">
<style type="text/css">
	.st0{fill:url(#SVGID_1_);}
	.st1{fill:url(#SVGID_2_);}
	.st2{fill:url(#SVGID_3_);}
	.st3{fill:#FFFFFF;}
</style>
<title>partner</title>
<g>
	
		<linearGradient id="SVGID_1_" gradientUnits="userSpaceOnUse" x1="35.0941" y1="-681.1526" x2="108.0633" y2="-543.921" gradientTransform="matrix(0.9984 0 0 -0.9984 0.5425 -500.9194)">
		<stop  offset="0" style="stop-color:#FFFFFF"/>
		<stop  offset="0.16" style="stop-color:#FFFFFF"/>
		<stop  offset="0.23" style="stop-color:#FFFFFF;stop-opacity:0.97"/>
		<stop  offset="0.34" style="stop-color:#FFFFFF;stop-opacity:0.9"/>
		<stop  offset="0.47" style="stop-color:#FFFFFF;stop-opacity:0.77"/>
		<stop  offset="0.61" style="stop-color:#FFFFFF;stop-opacity:0.6"/>
		<stop  offset="0.77" style="stop-color:#FFFFFF;stop-opacity:0.37"/>
		<stop  offset="0.94" style="stop-color:#FFFFFF;stop-opacity:0.11"/>
		<stop  offset="1" style="stop-color:#FFFFFF;stop-opacity:0"/>
	</linearGradient>
	<path class="st0" d="M62.2,185.1c-16.4,0-32.1-6.5-43.7-18.1C6.8,155.4,0.2,139.7,0,123.2c-0.2-5.1,3.8-9.4,8.9-9.5
		c5.1-0.2,9.4,3.8,9.5,8.9c0,0.1,0,0.3,0,0.4c0.2,18.5,12,35,29.4,41.2c4.6,1.6,9.5,2.5,14.4,2.5c24,0,43.5-19.9,43.5-44.3V56
		c0-5.1,4.1-9.2,9.2-9.2s9.2,4.1,9.2,9.2v66.4C124.1,157,96.3,185.1,62.2,185.1z"/>
	
		<linearGradient id="SVGID_2_" gradientUnits="userSpaceOnUse" x1="128.2096" y1="-590.7558" x2="26.9538" y2="-572.8994" gradientTransform="matrix(0.9984 0 0 -0.9984 0.5425 -500.9194)">
		<stop  offset="0" style="stop-color:#FFFFFF"/>
		<stop  offset="0.38" style="stop-color:#FFFFFF"/>
		<stop  offset="1" style="stop-color:#FFFFFF;stop-opacity:0.2"/>
	</linearGradient>
	<path class="st1" d="M91.4,63.8C91.4,32.6,113.9,16,135,16c4.3-0.2,7.7-3.7,7.7-8.1s-3.6-7.9-8-7.9l0,0c-13.6,0-25,3.9-34.2,10.2
		C82.4,22.7,73,44.4,73,64.3v56.2c0,15.4-12.3,27.9-27.3,27.9c-14.3,0-26.3-11.4-27.3-26c0,0,0,0.3,0,0.6
		c0.2,15.8,8.8,30.4,22.6,38.1c4.1,2.3,8.6,4,13.3,4.8c21.1-4.1,37.1-23,37.1-45.5C91.4,120.4,91.4,63.8,91.4,63.8z"/>
	
		<linearGradient id="SVGID_3_" gradientUnits="userSpaceOnUse" x1="23.0639" y1="-517.825" x2="109.9757" y2="-517.825" gradientTransform="matrix(0.9984 0 0 -0.9984 0.5425 -500.9194)">
		<stop  offset="0.11" style="stop-color:#FFFFFF"/>
		<stop  offset="0.18" style="stop-color:#FFFFFF;stop-opacity:0.96"/>
		<stop  offset="0.31" style="stop-color:#FFFFFF;stop-opacity:0.84"/>
		<stop  offset="0.49" style="stop-color:#FFFFFF;stop-opacity:0.64"/>
		<stop  offset="0.7" style="stop-color:#FFFFFF;stop-opacity:0.38"/>
		<stop  offset="0.93" style="stop-color:#FFFFFF;stop-opacity:4.000000e-02"/>
		<stop  offset="0.96" style="stop-color:#FFFFFF;stop-opacity:0"/>
	</linearGradient>
	<path class="st2" d="M110.3,4.9c-11.1,4.4-22.8,6.6-34.7,6.6c-13.5,0-26.9-2.9-39.2-8.5c-4.7-1.7-10,0.7-11.7,5.4
		c-1.6,4.3,0.2,9,4.2,11.2c14.7,6.7,30.6,10.1,46.7,10.1l0,0c2.4,0,4.8-0.1,7.1-0.2c1.9-3.3,4.2-6.3,6.7-9.2
		C95.1,13.6,102.3,8.3,110.3,4.9z"/>
	<g>
		<path class="st3" d="M244.6,116.7c0-19.1,14.2-34.5,34.1-34.5c17.9,0,33.1,12.3,33.1,37.3c0,1.5-1.3,3-3,3c-1.8,0-46,0-46,0
			c1.2,8.1,7.8,14.8,19,14.8c4.7,0,10.8-1.6,15.2-4.6c1.5-1,3.3-0.4,4.2,0.9c0.6,0.8,2.9,4.1,4.4,6.5c1,1.5,0.3,3.4-0.7,4.1
			c-6.6,4.7-15.8,7.3-24.9,7.3C259.8,151.4,244.6,137.9,244.6,116.7z M278.8,96.4c-10.8,0-15.4,7.5-16.1,14.1h32.5
			C294.6,104.2,290.2,96.4,278.8,96.4z M435.2,116.7c0-19.1,14.2-34.5,34.1-34.5c17.9,0,33,12.3,33,37.3c0,1.5-1.3,3-3,3
			c-1.8,0-46,0-46,0c1.2,8.1,7.8,14.8,19,14.8c4.7,0,10.8-1.6,15.2-4.6c1.5-1,3.3-0.4,4.1,0.9c0.6,0.8,2.9,4.1,4.4,6.5
			c1,1.5,0.3,3.4-0.7,4.1c-6.6,4.7-15.8,7.3-24.9,7.3C450.3,151.4,435.2,137.9,435.2,116.7z M469.3,96.4c-10.8,0-15.4,7.5-16.1,14.1
			h32.5C485.2,104.2,480.8,96.4,469.3,96.4z M323.2,146.8c0-1.3,0-47.5,0-59.9c0-1.9,1.7-3,3-3c0.9,0,7.4,0,11.3,0c1.8,0,3,1.5,3,3
			c0,1.5,0,5.8,0,5.8c4.1-4.9,10.6-9.1,17.5-10.2c1.7-0.3,3.5,1.1,3.5,3c0,3.6,0,9,0,10.3c0,2-1.8,3.1-3,3c-6.9-0.6-15.2,4.2-18,11
			c0,0,0,35.5,0,37c0,1.5-1.2,3-3,3c-3.8,0-10.1,0-11.3,0C324.4,149.8,323.2,148.2,323.2,146.8z M369.2,138.8
			c1.5-2.5,3.8-6.3,4.4-7.3c1-1.6,3-1.6,4.3-0.8c5.3,3.8,13.3,7.1,20.2,7.1c7.5,0,11.1-2.9,11.1-7c0-10.8-39.1-1.9-39.1-27.9
			c0-11.1,9.6-20.8,27-20.8c9.9,0,18.1,3.1,24.4,7.4c0.7,0.5,1.8,2.2,0.8,3.9c-0.6,1-2.4,4.3-3.8,6.7c-1.1,1.9-3.4,1.7-4.3,1.1
			c-4.2-3.1-10.5-5.5-17.1-5.5c-6.3,0-10.4,2.7-10.4,6.4c0,9.7,39.2,1.5,39.2,28.1c0,12.2-10.4,21-28.7,21
			c-10.4,0-20.5-3.1-27.5-8.5C369.1,142.3,368.1,140.7,369.2,138.8z M558.8,86.9c0,11.8,0,31.2,0,34.9c0,5.8-5,11.7-14,11.7
			c-8.7,0-13.4-6.7-13.4-11.7c0-6.9,0-26.9,0-34.9c0-1.5-1.2-3-3-3c-1.2,0-7.5,0-11.3,0c-1.8,0-3,1.5-3,3c0,7.1,0,36.6,0,36.6
			c0,15.9,14.4,26.6,30.5,26.3c9.2-0.2,12.2-3.1,14.2-4.4c0,10-5,15.1-10.7,16.5c-6.8,1.7-15.4,1.9-24.5-4.8
			c-1.7-1.2-3.7-0.2-4.3,0.7c-1.5,2.4-3,4.7-4.4,7.1c-1,1.7-0.5,3.3,0.7,4.2c13.4,9.9,28.3,8.2,35.7,6.8
			c14.8-2.8,24.9-16.1,24.9-28.7c0-17,0-50.3,0-60.4c0-1.5-1.2-3-3-3c-1.2,0-7.5,0-11.3,0C560,83.8,558.8,85.4,558.8,86.9 M234.5,66
			c0-1.5-1.2-3-3-3c-1.2,0-8.2,0-12,0c-1.8,0-3,1.5-3,3c0,18.6,0,1.2,0,53.6c0,7.8-6,14.9-15.2,14.9c-3.7,0-10.1-1.7-13.6-7.2
			c-0.9-1.3-2.3-1.7-3.9-1.1c-1.2,0.5-6.7,3-10.1,4.5c-1.8,0.8-1.9,3.1-1.3,4.1c3,5,10.8,15.6,28.7,15.6c22.1,0,33.3-14,33.3-35.2
			C234.5,115.3,234.5,67.6,234.5,66z"/>
		<path class="st3" d="M342.4,221.7c0-7.3,5-12.9,12.3-12.9c7.3,0,12.3,5.5,12.3,12.9c0,7.3-5,12.9-12.3,12.9
			C347.4,234.6,342.4,229.1,342.4,221.7z M363.9,221.7c0-5.8-3.6-10.1-9.1-10.1c-5.6,0-9.1,4.3-9.1,10.1c0,5.8,3.5,10.1,9.1,10.1
			C360.3,231.8,363.9,227.5,363.9,221.7z M372.6,234.1v-15.5h-3v-2.5h3v-1.4c0-3.7,2-5.9,5.2-5.9c1.4,0,2.7,0.3,3.8,1.4l-1.2,1.8
			c-0.6-0.5-1.3-0.9-2.2-0.9c-1.8,0-2.8,1.3-2.8,3.5v1.4h3.7v2.5h-3.7v15.5H372.6z M383.2,234.1v-15.5h-3v-2.5h3v-1.4
			c0-3.7,2.1-5.9,5.2-5.9c1,0,2,0.2,2.7,0.6l-0.7,2.1c-0.4-0.3-0.9-0.4-1.6-0.4c-1.8,0-2.8,1.3-2.8,3.5v1.4h3.7v2.5H386v15.5H383.2z
			 M392.5,211.7c0-1,0.9-1.9,1.9-1.9c1,0,1.9,0.9,1.9,1.9c0,1-0.9,1.9-1.9,1.9C393.3,213.6,392.5,212.7,392.5,211.7z M393,234.1v-18
			h2.8v18H393z M398.8,225.1c0-5.3,3.6-9.4,9-9.4c3.3,0,5.2,1.3,6.6,3.1l-1.9,1.7c-1.2-1.6-2.7-2.4-4.6-2.4c-3.8,0-6.2,2.9-6.2,6.9
			c0,4,2.4,7,6.2,7c1.9,0,3.4-0.7,4.6-2.4l1.9,1.7c-1.4,1.8-3.3,3.1-6.6,3.1C402.4,234.6,398.8,230.5,398.8,225.1z M417.8,211.7
			c0-1,0.9-1.9,1.9-1.9c1,0,1.9,0.9,1.9,1.9c0,1-0.9,1.9-1.9,1.9C418.7,213.6,417.8,212.7,417.8,211.7z M418.3,234.1v-18h2.8v18
			H418.3z M437.2,234.1v-2c-1.5,1.6-3.5,2.5-6,2.5c-3.1,0-6.3-2-6.3-6c0-4,3.2-5.9,6.3-5.9c2.5,0,4.5,0.8,6,2.5v-3.2
			c0-2.4-1.9-3.8-4.5-3.8c-2.2,0-3.9,0.8-5.5,2.5l-1.3-1.9c1.9-2,4.2-3,7.2-3c3.8,0,7,1.7,7,6.1v12.4H437.2z M437.2,230.3V227
			c-1.1-1.5-3-2.2-5-2.2c-2.6,0-4.4,1.6-4.4,4c0,2.3,1.8,3.9,4.4,3.9C434.2,232.6,436.1,231.8,437.2,230.3z M445.6,234.1v-24.9h2.8
			v24.9H445.6z M463.7,234.1v-24.9h10c5,0,7.8,3.4,7.8,7.5c0,4.1-2.9,7.5-7.8,7.5h-6.9v9.9H463.7z M478.3,216.8c0-2.8-2-4.7-5-4.7
			h-6.5v9.5h6.5C476.3,221.5,478.3,219.6,478.3,216.8z M496,234.1v-2c-1.5,1.6-3.5,2.5-6,2.5c-3.1,0-6.3-2-6.3-6
			c0-4,3.2-5.9,6.3-5.9c2.5,0,4.5,0.8,6,2.5v-3.2c0-2.4-1.9-3.8-4.5-3.8c-2.2,0-3.9,0.8-5.5,2.5l-1.3-1.9c1.9-2,4.3-3,7.2-3
			c3.8,0,7,1.7,7,6.1v12.4H496z M496,230.3V227c-1.1-1.5-3-2.2-5-2.2c-2.6,0-4.4,1.6-4.4,4c0,2.3,1.8,3.9,4.4,3.9
			C493,232.6,494.9,231.8,496,230.3z M502.9,234.1v-18h2.8v2.9c1.5-1.9,3.5-3.3,6-3.3v2.9c-0.3-0.1-0.7-0.1-1.1-0.1
			c-1.7,0-4.1,1.4-4.9,2.9v12.8H502.9z M516.5,230.4v-11.8h-3v-2.5h3v-4.9h2.8v4.9h3.7v2.5h-3.7v11.2c0,1.3,0.6,2.3,1.8,2.3
			c0.8,0,1.5-0.3,1.9-0.7l0.8,2.1c-0.7,0.7-1.7,1.2-3.4,1.2C517.8,234.6,516.5,233.1,516.5,230.4z M539.1,234.1v-11.8
			c0-3.2-1.6-4.2-4-4.2c-2.2,0-4.3,1.3-5.3,2.8v13.2h-2.8v-18h2.8v2.6c1.3-1.5,3.7-3.1,6.4-3.1c3.8,0,5.7,1.9,5.7,5.8v12.6H539.1z
			 M545.7,225.1c0-5.2,3.7-9.4,8.9-9.4c5.4,0,8.6,4.3,8.6,9.7v0.7h-14.6c0.2,3.4,2.6,6.2,6.5,6.2c2.1,0,4.1-0.8,5.6-2.3l1.3,1.8
			c-1.8,1.8-4.2,2.8-7.2,2.8C549.5,234.6,545.7,230.8,545.7,225.1z M554.5,218c-3.8,0-5.7,3.2-5.9,6h11.8
			C560.4,221.3,558.6,218,554.5,218z M566.9,234.1v-18h2.8v2.9c1.5-1.9,3.5-3.3,6-3.3v2.9c-0.3-0.1-0.7-0.1-1.1-0.1
			c-1.7,0-4.1,1.4-4.9,2.9v12.8H566.9z"/>
	</g>
</g>
</svg>
