<?xml version="1.0" encoding="utf-8"?>
<!-- Generator: Adobe Illustrator 20.1.0, SVG Export Plug-In . SVG Version: 6.00 Build 0)  -->
<svg version="1.1" id="Layer_1" xmlns="http://www.w3.org/2000/svg" xmlns:xlink="http://www.w3.org/1999/xlink" x="0px" y="0px"
	 viewBox="0 0 576.1 185.1" style="enable-background:new 0 0 576.1 185.1;" xml:space="preserve">
<style type="text/css">
	.st0{fill:url(#SVGID_1_);}
	.st1{fill:url(#SVGID_2_);}
	.st2{fill:url(#SVGID_3_);}
	.st3{fill:#FFFFFF;}
</style>
<title>partner</title>
<linearGradient id="SVGID_1_" gradientUnits="userSpaceOnUse" x1="35.0868" y1="866.5171" x2="108.056" y2="729.2854" gradientTransform="matrix(0.9984 0 0 0.9984 0.5569 -685.9872)">
	<stop  offset="0" style="stop-color:#FFFFFF"/>
	<stop  offset="0.16" style="stop-color:#FFFFFF"/>
	<stop  offset="0.23" style="stop-color:#FFFFFF;stop-opacity:0.97"/>
	<stop  offset="0.34" style="stop-color:#FFFFFF;stop-opacity:0.9"/>
	<stop  offset="0.47" style="stop-color:#FFFFFF;stop-opacity:0.77"/>
	<stop  offset="0.61" style="stop-color:#FFFFFF;stop-opacity:0.6"/>
	<stop  offset="0.77" style="stop-color:#FFFFFF;stop-opacity:0.37"/>
	<stop  offset="0.94" style="stop-color:#FFFFFF;stop-opacity:0.11"/>
	<stop  offset="1" style="stop-color:#FFFFFF;stop-opacity:0"/>
</linearGradient>
<path class="st0" d="M62.2,185.1c-16.4,0-32.1-6.5-43.7-18.1C6.8,155.4,0.2,139.7,0,123.2c-0.2-5.1,3.8-9.4,8.9-9.5
	c5.1-0.2,9.4,3.8,9.5,8.9c0,0.1,0,0.3,0,0.4c0.2,18.5,12,35,29.4,41.2c4.6,1.6,9.5,2.5,14.4,2.5c24,0,43.5-19.9,43.5-44.3V56
	c0-5.1,4.1-9.2,9.2-9.2s9.2,4.1,9.2,9.2v66.4C124.1,157,96.3,185.1,62.2,185.1z"/>
<linearGradient id="SVGID_2_" gradientUnits="userSpaceOnUse" x1="128.2024" y1="776.1202" x2="26.9466" y2="758.2638" gradientTransform="matrix(0.9984 0 0 0.9984 0.5569 -685.9872)">
	<stop  offset="0" style="stop-color:#FFFFFF"/>
	<stop  offset="0.38" style="stop-color:#FFFFFF"/>
	<stop  offset="1" style="stop-color:#FFFFFF;stop-opacity:0.2"/>
</linearGradient>
<path class="st1" d="M91.4,63.8C91.4,32.6,113.9,16,135,16c4.3-0.2,7.7-3.7,7.7-8.1s-3.6-7.9-8-7.9l0,0c-13.6,0-25,3.9-34.2,10.2
	C82.4,22.7,73,44.4,73,64.3v56.2c0,15.4-12.3,27.9-27.3,27.9c-14.3,0-26.3-11.4-27.3-26c0,0,0,0.3,0,0.6
	c0.2,15.8,8.8,30.4,22.6,38.1c4.1,2.3,8.6,4,13.3,4.8c21.1-4.1,37.1-23,37.1-45.5C91.4,120.4,91.4,63.8,91.4,63.8z"/>
<linearGradient id="SVGID_3_" gradientUnits="userSpaceOnUse" x1="23.0495" y1="703.1894" x2="109.9613" y2="703.1894" gradientTransform="matrix(0.9984 0 0 0.9984 0.5569 -685.9872)">
	<stop  offset="0.11" style="stop-color:#FFFFFF"/>
	<stop  offset="0.18" style="stop-color:#FFFFFF;stop-opacity:0.96"/>
	<stop  offset="0.31" style="stop-color:#FFFFFF;stop-opacity:0.84"/>
	<stop  offset="0.49" style="stop-color:#FFFFFF;stop-opacity:0.64"/>
	<stop  offset="0.7" style="stop-color:#FFFFFF;stop-opacity:0.38"/>
	<stop  offset="0.93" style="stop-color:#FFFFFF;stop-opacity:4.000000e-02"/>
	<stop  offset="0.96" style="stop-color:#FFFFFF;stop-opacity:0"/>
</linearGradient>
<path class="st2" d="M110.3,4.9c-11.1,4.4-22.8,6.6-34.7,6.6c-13.5,0-26.9-2.9-39.2-8.5c-4.7-1.7-10,0.7-11.7,5.4
	c-1.6,4.3,0.2,9,4.2,11.2c14.7,6.7,30.6,10.1,46.7,10.1l0,0c2.4,0,4.8-0.1,7.1-0.2c1.9-3.3,4.2-6.3,6.7-9.2
	C95.1,13.6,102.3,8.3,110.3,4.9z"/>
<path class="st3" d="M244.8,116.4c0-19.1,14.2-34.5,34.1-34.5c17.9,0,33,12.3,33,37.2c0,1.7-1.4,3-3,3H263
	c1.2,8.1,7.8,14.7,18.9,14.7c5.4-0.1,10.6-1.7,15.2-4.6c1.4-0.9,3.2-0.5,4.1,0.9c0.5,0.8,2.9,4.1,4.4,6.5c0.8,1.3,0.5,3.1-0.7,4.1
	c-6.6,4.7-15.8,7.3-24.9,7.3C260,151,244.8,137.5,244.8,116.4z M278.9,96c-10.8,0-15.4,7.5-16.1,14h32.5
	C294.8,103.8,290.4,96,278.9,96z"/>
<path class="st3" d="M435.2,116.4c0-19.1,14.2-34.5,34.1-34.5c17.9,0,33,12.3,33,37.2c0,1.7-1.4,3-3,3h-46
	c1.2,8.1,7.8,14.7,18.9,14.7c5.4-0.1,10.6-1.7,15.2-4.6c1.4-0.9,3.2-0.5,4.1,0.9c0.6,0.8,2.9,4.1,4.4,6.5c0.8,1.3,0.5,3.1-0.7,4.1
	c-6.6,4.7-15.8,7.3-24.9,7.3C450.4,151,435.2,137.5,435.2,116.4z M469.3,96c-10.8,0-15.4,7.5-16.1,14h32.5
	C485.1,103.8,480.8,96,469.3,96z"/>
<path class="st3" d="M323.4,146.4V86.5c0-1.7,1.4-3,3-3h11.3c1.7,0,3,1.4,3,3v5.8c4.1-4.9,10.6-9.1,17.5-10.2c1.7-0.2,3.2,1,3.5,2.6
	c0,0.1,0,0.2,0,0.4v10.2c0,1.7-1.4,3-3,3c-6.9-0.6-15.2,4.2-18,11v36.9c0,1.7-1.4,3-3,3h-11.3C324.7,149.4,323.4,148,323.4,146.4z"
	/>
<path class="st3" d="M369.3,138.5l4.4-7.3c0.9-1.4,2.8-1.8,4.1-0.9l0.1,0.1c5.3,3.8,13.3,7.1,20.2,7.1c7.5,0,11.1-2.9,11.1-7
	c0-10.8-39-1.9-39-27.8c0-11,9.6-20.7,27-20.7c8.7-0.1,17.2,2.5,24.4,7.4c1.2,0.9,1.5,2.6,0.8,3.9c-0.6,1-2.4,4.3-3.8,6.7
	c-0.8,1.5-2.7,2-4.1,1.1l-0.1-0.1c-5-3.5-10.9-5.5-17-5.5c-6.3,0-10.4,2.7-10.4,6.4c0,9.7,39.2,1.5,39.2,28.1
	c0,12.1-10.4,21-28.6,21c-10.4,0-20.5-3.1-27.5-8.5C368.7,141.5,368.4,139.8,369.3,138.5z"/>
<path class="st3" d="M558.7,86.5c0,11.8,0,31.1,0,34.9c0,5.8-5,11.7-14,11.7c-8.7,0-13.4-6.7-13.4-11.7V86.5c0-1.7-1.4-3-3-3H517
	c-1.7,0-3,1.4-3,3c0,7.1,0,36.6,0,36.6c0,15.9,14.4,26.6,30.5,26.3c9.2-0.2,12.2-3.1,14.2-4.4c0,10-5,15.1-10.7,16.5
	c-6.7,1.7-15.3,2-24.5-4.7c-1.4-0.9-3.3-0.6-4.3,0.7c-1.5,2.4-3,4.7-4.4,7.1c-1,1.7-0.5,3.3,0.7,4.2c13.4,9.9,28.2,8.2,35.7,6.8
	c14.8-2.8,24.9-16.1,24.9-28.7V86.5c0-1.7-1.4-3-3-3h-11.3C560,83.5,558.7,84.9,558.7,86.5"/>
<path class="st3" d="M234.7,65.7c0-1.7-1.4-3-3-3h-12c-1.7,0-3,1.4-3,3v53.5c0,7.8-6,14.8-15.2,14.8c-3.7,0-10-1.7-13.6-7.1
	c-0.8-1.3-2.5-1.8-3.9-1.1c-1.2,0.5-6.7,3-10,4.6c-1.8,0.8-1.9,3.1-1.3,4.1c3,5,10.8,15.6,28.7,15.6c22.1,0,33.3-14,33.3-35.1V65.7
	L234.7,65.7z"/>
</svg>
